<?xml version="1.0" encoding="UTF-8"?>
<svg id="Layer_2" data-name="Layer 2" xmlns="http://www.w3.org/2000/svg" width="269.19mm" height="205.61mm" viewBox="0 0 763.05 582.83">
  <g id="Layer_1-2" data-name="Layer 1">
    <g>
      <g>
        <g>
          <line x1="332.34" y1="184.75" x2="201.69" y2="16.42" fill="none" stroke="#53b859" stroke-linecap="round" stroke-miterlimit="10" stroke-width="12"/>
          <line x1="347.95" y1="182.71" x2="275.53" y2="29.22" fill="none" stroke="#9969ac" stroke-linecap="round" stroke-miterlimit="10" stroke-width="12"/>
          <line x1="363.57" y1="191.87" x2="311.74" y2="7.52" fill="none" stroke="#53b859" stroke-linecap="round" stroke-miterlimit="10" stroke-width="12"/>
          <line x1="371.47" y1="191.87" x2="351.58" y2="46.54" fill="#53b859" stroke="#ebbb1e" stroke-linecap="round" stroke-miterlimit="10" stroke-width="12"/>
          <line x1="381.5" y1="189.58" x2="382.07" y2="6" fill="none" stroke="#9969ac" stroke-linecap="round" stroke-miterlimit="10" stroke-width="12"/>
          <line x1="396.82" y1="189.58" x2="412.08" y2="46.54" fill="#53b859" stroke="#ebbb1e" stroke-linecap="round" stroke-miterlimit="10" stroke-width="12"/>
          <line x1="404.45" y1="191.1" x2="451.23" y2="7.52" fill="#53b859" stroke="#ebbb1e" stroke-linecap="round" stroke-miterlimit="10" stroke-width="12"/>
          <line x1="412.08" y1="191.1" x2="489.56" y2="27.79" fill="#53b859" stroke="#ebbb1e" stroke-linecap="round" stroke-miterlimit="10" stroke-width="12"/>
          <line x1="431.7" y1="183.34" x2="560.85" y2="15.29" fill="none" stroke="#53b859" stroke-linecap="round" stroke-miterlimit="10" stroke-width="12"/>
          <line x1="451.23" y1="221.87" x2="593.32" y2="76.15" fill="#53b859" stroke="#46bea8" stroke-linecap="round" stroke-miterlimit="10" stroke-width="12"/>
          <line x1="502.42" y1="186.66" x2="671.2" y2="74.4" fill="none" stroke="#e85b89" stroke-linecap="round" stroke-miterlimit="10" stroke-width="12"/>
          <line x1="531.85" y1="199.44" x2="732.11" y2="101.75" fill="none" stroke="#e85b89" stroke-linecap="round" stroke-miterlimit="10" stroke-width="12"/>
          <line x1="518.14" y1="230.48" x2="698.81" y2="176.81" fill="none" stroke="#53b859" stroke-linecap="round" stroke-miterlimit="10" stroke-width="12"/>
          <line x1="524.01" y1="253.73" x2="757.05" y2="210.95" fill="#53b859" stroke="#ebbb1e" stroke-linecap="round" stroke-miterlimit="10" stroke-width="12"/>
          <line x1="479.42" y1="276.21" x2="716.88" y2="262.7" fill="#53b859" stroke="#46bea8" stroke-linecap="round" stroke-miterlimit="10" stroke-width="12"/>
          <line x1="489.56" y1="289.53" x2="757.05" y2="313.19" fill="#53b859" stroke="#ebbb1e" stroke-linecap="round" stroke-miterlimit="10" stroke-width="12"/>
          <line x1="456.42" y1="298.69" x2="727.07" y2="359.18" fill="none" stroke="#e85b89" stroke-linecap="round" stroke-miterlimit="10" stroke-width="12"/>
          <line x1="491.42" y1="317.75" x2="746.36" y2="413.14" fill="#53b859" stroke="#46bea8" stroke-linecap="round" stroke-miterlimit="10" stroke-width="12"/>
          <line x1="495.49" y1="329.1" x2="728.97" y2="468.41" fill="#53b859" stroke="#ebbb1e" stroke-linecap="round" stroke-miterlimit="10" stroke-width="12"/>
          <line x1="517.45" y1="361.79" x2="649.86" y2="489.99" fill="none" stroke="#0ea6db" stroke-linecap="round" stroke-miterlimit="10" stroke-width="12"/>
          <line x1="511.79" y1="398.75" x2="654.2" y2="566.7" fill="none" stroke="#53b859" stroke-linecap="round" stroke-miterlimit="10" stroke-width="12"/>
          <line x1="491.42" y1="405.8" x2="569.05" y2="535.2" fill="none" stroke="#0ea6db" stroke-linecap="round" stroke-miterlimit="10" stroke-width="12"/>
          <line x1="466.93" y1="405.8" x2="527.87" y2="542.06" fill="none" stroke="#e85b89" stroke-linecap="round" stroke-miterlimit="10" stroke-width="12"/>
          <line x1="451.34" y1="433.93" x2="482.97" y2="550.25" fill="none" stroke="#53b859" stroke-linecap="round" stroke-miterlimit="10" stroke-width="12"/>
          <line x1="423.31" y1="443.1" x2="444.94" y2="564.61" fill="#53b859" stroke="#ebbb1e" stroke-linecap="round" stroke-miterlimit="10" stroke-width="12"/>
          <line x1="402.1" y1="443.1" x2="408.26" y2="550.25" fill="none" stroke="#53b859" stroke-linecap="round" stroke-miterlimit="10" stroke-width="12"/>
          <line x1="381.68" y1="458.3" x2="381.68" y2="576.83" fill="none" stroke="#9969ac" stroke-linecap="round" stroke-miterlimit="10" stroke-width="12"/>
          <line x1="364.06" y1="425.89" x2="355.39" y2="548.75" fill="none" stroke="#e85b89" stroke-linecap="round" stroke-miterlimit="10" stroke-width="12"/>
          <line x1="341.25" y1="442.43" x2="319.15" y2="565.28" fill="none" stroke="#53b859" stroke-linecap="round" stroke-miterlimit="10" stroke-width="12"/>
          <line x1="311.16" y1="425.89" x2="279.92" y2="548.75" fill="none" stroke="#9969ac" stroke-linecap="round" stroke-miterlimit="10" stroke-width="12"/>
          <line x1="288.99" y1="421.18" x2="233.76" y2="539.75" fill="#53b859" stroke="#ebbb1e" stroke-linecap="round" stroke-miterlimit="10" stroke-width="12"/>
          <line x1="261.37" y1="421.18" x2="192.02" y2="536.72" fill="none" stroke="#53b859" stroke-linecap="round" stroke-miterlimit="10" stroke-width="12"/>
          <line x1="237.69" y1="411.75" x2="109.35" y2="567.3" fill="none" stroke="#e85b89" stroke-linecap="round" stroke-miterlimit="10" stroke-width="12"/>
          <line x1="266.35" y1="347.67" x2="114.42" y2="487.32" fill="#53b859" stroke="#46bea8" stroke-linecap="round" stroke-miterlimit="10" stroke-width="12"/>
          <line x1="225.08" y1="355.62" x2="36.42" y2="466.8" fill="none" stroke="#0ea6db" stroke-linecap="round" stroke-miterlimit="10" stroke-width="12"/>
          <line x1="192.02" y1="347.67" x2="16.9" y2="415.1" fill="none" stroke="#e85b89" stroke-linecap="round" stroke-miterlimit="10" stroke-width="12"/>
          <line x1="180.71" y1="327.15" x2="37.98" y2="360.14" fill="none" stroke="#53b859" stroke-linecap="round" stroke-miterlimit="10" stroke-width="12"/>
          <line x1="175.76" y1="298.69" x2="6" y2="311.93" fill="#53b859" stroke="#46bea8" stroke-linecap="round" stroke-miterlimit="10" stroke-width="12"/>
          <line x1="165.45" y1="269.75" x2="43.1" y2="261.99" fill="none" stroke="#e85b89" stroke-linecap="round" stroke-miterlimit="10" stroke-width="12"/>
          <line x1="190.38" y1="242.75" x2="6.88" y2="211.43" fill="none" stroke="#9969ac" stroke-linecap="round" stroke-miterlimit="10" stroke-width="12"/>
          <line x1="237.7" y1="230.73" x2="65.08" y2="174.91" fill="none" stroke="#53b859" stroke-linecap="round" stroke-miterlimit="10" stroke-width="12"/>
          <line x1="244.74" y1="206.33" x2="32.15" y2="102.75" fill="none" stroke="#9969ac" stroke-linecap="round" stroke-miterlimit="10" stroke-width="12"/>
          <line x1="290.43" y1="202.82" x2="91.52" y2="76.61" fill="none" stroke="#53b859" stroke-linecap="round" stroke-miterlimit="10" stroke-width="12"/>
          <line x1="207.92" y1="114.34" x2="167.42" y2="74.17" fill="none" stroke="#0ea6db" stroke-linecap="round" stroke-miterlimit="10" stroke-width="12"/>
        </g>
        <path d="M176.11,87.92c24.55-4.14,42.79,5.69,55.14,26.46,16.57-7.62,33.66-14.36,51.46-18.6,52.48-12.49,143.26-12.58,195.99-1.5,20.43,4.29,40.13,11.16,58.93,20.1,46.03-71.42,135.06,12.27,65.57,62.16,3.97,7.63,7.7,15.4,10.53,23.56,9.69,27.92,31.3,91.59,29.58,118.65-4.66,73.31-99.84,160.6-162.59,190.45-115.39,54.89-223.14,3.19-301.99-85.04-20.47-22.91-49.81-70.55-52.9-101.18-2.9-28.7,19.36-94.66,29.71-124.01,2.74-7.76,6.4-15.15,10.15-22.44-22.05-14.51-32.39-39.01-20.41-64.12,5.19-10.88,18.8-22.48,30.84-24.51Z" fill="#052c2f" stroke="#fff" stroke-miterlimit="10" stroke-width="11"/>
      </g>
      <g>
        <text transform="translate(195.94 304.12)" fill="#0da6db" font-family="GothamCondensed-Bold, &apos;Gotham Condensed&apos;" font-size="117.9" font-weight="700"><tspan x="0" y="0">BELL</tspan></text>
        <text transform="translate(387.91 304.12)" fill="#e85a88" font-family="GothamCondensed-Bold, &apos;Gotham Condensed&apos;" font-size="117.9" font-weight="700"><tspan x="0" y="0">BEAR</tspan></text>
        <text transform="translate(351.53 288.9)" fill="#fff" font-family="GothamCondensed-Bold, &apos;Gotham Condensed&apos;" font-size="74.62" font-weight="700"><tspan x="0" y="0">&amp;</tspan></text>
      </g>
      <text transform="translate(341.38 208.74)" fill="#fff" font-family="GothamCondensed-Bold, &apos;Gotham Condensed&apos;" font-size="74.62" font-weight="700"><tspan x="0" y="0">THE</tspan></text>
      <text transform="translate(190.2 372.38)" fill="#eabb1f" font-family="GothamCondensed-Bold, &apos;Gotham Condensed&apos;" font-size="74.62" font-weight="700"><tspan x="0" y="0">SUMMER FE</tspan><tspan x="241.77" y="0" letter-spacing="-.01em">S</tspan><tspan x="264.9" y="0">TI</tspan><tspan x="303.85" y="0" letter-spacing="-.02em">V</tspan><tspan x="330.57" y="0">AL</tspan></text>
      <text transform="translate(333.74 440.1)" fill="#fff" font-family="GothamCondensed-Bold, &apos;Gotham Condensed&apos;" font-size="74.62" font-weight="700"><tspan x="0" y="0">2</tspan><tspan x="23.88" y="0" letter-spacing="0em">0</tspan><tspan x="52.53" y="0" letter-spacing="0em">2</tspan><tspan x="76.04" y="0">6</tspan></text>
    </g>
  </g>
</svg>