<?xml version="1.0" encoding="UTF-8"?>
<svg id="Layer_2" data-name="Layer 2" xmlns="http://www.w3.org/2000/svg" width="121.69mm" height="104.99mm" viewBox="0 0 344.95 297.61">
  <g id="Layer_1-2" data-name="Layer 1">
    <g>
      <path d="M70.12,18.96c9.74-4.49,20.3-8.91,30.69-11.69,37.7-10.07,110.33-9.69,147.85,1.21,8.95,2.6,18.18,6.15,26.45,10.46,16.23-31.97,64.1-20.17,60.33,17.46-1.03,10.3-8.36,18.85-16.93,23.95,3.29,4.75,6.07,11.36,8,16.92,5.53,15.96,12.87,38.93,16.64,55.18,10.95,47.18-29.59,95.2-64.08,122.88-70.14,56.28-142.29,56.43-212.42,0C36.06,230.74-3.4,184.9.23,143.11c1.2-13.82,13.64-50.47,18.7-65.09,2.02-5.85,4.79-12.68,8.25-17.67-15.97-8.77-22-27.91-13.12-44.05,12.19-22.15,46.48-20.74,56.05,2.66Z" fill="#1e1e1d"/>
      <path d="M239.67,184.54H106.01c-2.36-10.29,5.73-12.54,10.39-20.03,16.86-27.12-8.46-61.41,26.82-82.9,2.05-1.25,11.77-5.17,12.18-5.77.78-1.16.9-5.59,1.97-8.01,5.01-11.36,25.08-11.63,30.63-.69,1.37,2.7,1.42,7.42,2.28,8.7.41.61,10.13,4.52,12.18,5.77,35.3,21.5,9.92,55.71,26.82,82.9,4.66,7.5,12.75,9.74,10.39,20.03Z" fill="#cda939"/>
      <path d="M197.78,194.52c-.02,19.29-22.6,26.65-38.28,18.83-5.58-2.78-11.65-9.9-11.65-16.37,0-5.1,2.45-2.46,3.55-2.46h46.38Z" fill="#cca839"/>
      <path d="M104.76,77.02c12.94-2.49,22.81,19.06,1.8,18.77-15.99-.22-12.33-16.75-1.8-18.77Z" fill="#fbfaf9"/>
      <path d="M236.43,77.03c7.81-1.29,14.65,5.18,13.21,13.2-1.19,6.63-14.14,5.91-18.97,4.06-7.86-3-2.1-15.96,5.76-17.27Z" fill="#fbfaf8"/>
      <path d="M166.65,120c12.42-1.33,37.3,1.13,29.32,19.34-6.98,15.91-36.67,16.43-45.28,2.02-8.24-13.79,3.65-20.04,15.96-21.36Z" fill="#1f1f1b"/>
    </g>
  </g>
</svg>