<?xml version="1.0" encoding="UTF-8"?>
<svg id="Layer_2" data-name="Layer 2" xmlns="http://www.w3.org/2000/svg" width="121.69mm" height="104.99mm" viewBox="0 0 344.95 297.61">
  <g id="Layer_1-2" data-name="Layer 1">
    <path d="M70.12,18.96c9.74-4.49,20.3-8.91,30.69-11.69,37.7-10.07,110.33-9.69,147.85,1.21,8.95,2.6,18.18,6.15,26.45,10.46,16.23-31.97,64.1-20.17,60.33,17.46-1.03,10.3-8.36,18.85-16.93,23.95,3.29,4.75,6.07,11.36,8,16.92,5.53,15.96,12.87,38.93,16.64,55.18,10.95,47.18-29.59,95.2-64.08,122.88-70.14,56.28-142.29,56.43-212.42,0C36.06,230.74-3.4,184.9.23,143.11c1.2-13.82,13.64-50.47,18.7-65.09,2.02-5.85,4.79-12.68,8.25-17.67-15.97-8.77-22-27.91-13.12-44.05,12.19-22.15,46.48-20.74,56.05,2.66Z" fill="#1e1e1d"/>
  </g>
</svg>